# xmcd
#
# Track frame offsets:
#	150
#	15613
#	34734
#	49985
#	68842
#	85088
#	103145
#	116244
#	139168
#	160106
#	180557
#
# Disc length: 2788 seconds
#
# Revision: 1
# Processed by: cddbd v1.5.2PL0 Copyright (c) Steve Scherf et al.
# Submitted via: audiograbber 1.82.02
#
DISCID=920ae20b
DTITLE=Tuzkerek XT - Ejfelkor megszolal egy blues
DYEAR=2004
DGENRE=Blues
TTITLE0=Foxy Lady
TTITLE1=A szel kiallt.. Mary
TTITLE2=Voros haz - Red House
TTITLE3=Hej ! R. B. Tuzgitaros
TTITLE4=Tobacco Road
TTITLE5=Bibor kod
TTITLE6=Kicsi szarny - Litle Wind
TTITLE7=A felkelo nap haza
TTITLE8=Vadnak szulettem
TTITLE9=Ejfelkor megszolal egy blues
TTITLE10=Voros haz - Red House slow version
EXTD=
EXTT0=
EXTT1=
EXTT2=
EXTT3=
EXTT4=
EXTT5=
EXTT6=
EXTT7=
EXTT8=
EXTT9=
EXTT10=
PLAYORDER=
